<svg xmlns="http://www.w3.org/2000/svg" width="166" height="135" fill="none" viewBox="12 0 166 135"><circle cx="94.5" cy="67.5" r="59.5" fill="#F5F6F6"/><g filter="url(#filter0_d)"><rect width="145" height="72" x="22" y="26" fill="#fff" rx="6"/><rect width="144.5" height="71.5" x="22.25" y="26.25" stroke="#E9F7F0" stroke-width=".5" rx="5.75"/></g><g filter="url(#filter1_dd)"><rect width="166" height="50" x="12" y="37" fill="#fff" rx="8"/><rect width="165.5" height="49.5" x="12.25" y="37.25" stroke="#E9F7F0" stroke-width=".5" rx="7.75"/></g><rect width="34" height="34" x="20" y="45" fill="#F5F6F6" rx="6"/><rect width="13" height="10" x="28.5" y="56" fill="#B0B3B2" rx="2"/><path fill="#B0B3B2" d="M41.5 58L45.5 56V66L41.5 64V58Z"/><rect width="72" height="4" x="63" y="49" fill="#17A34A" rx="2"/><rect width="64" height="4" x="63" y="61" fill="#D5F2E0" rx="2"/><rect width="94" height="4" x="63" y="73" fill="#E9F7F0" rx="2"/><defs><filter id="filter0_d" width="148.75" height="75.75" x="20.125" y="25.063" color-interpolation-filters="sRGB" filterUnits="userSpaceOnUse"><feFlood flood-opacity="0" result="BackgroundImageFix"/><feGaussianBlur stdDeviation="1"/><feColorMatrix type="matrix" values="0 0 0 0 0.1 0 0 0 0 0.15 0 0 0 0 0.14 0 0 0 0.04 0"/><feBlend in2="BackgroundImageFix" mode="normal" result="effect1_dropShadow"/><feBlend in="SourceGraphic" in2="effect1_dropShadow" mode="normal" result="shape"/></filter><filter id="filter1_dd" width="190" height="73" x="0" y="37" color-interpolation-filters="sRGB" filterUnits="userSpaceOnUse"><feFlood flood-opacity="0" result="BackgroundImageFix"/><feMorphology in="SourceAlpha" operator="erode" radius="2" result="effect1_dropShadow"/><feOffset dy="4"/><feGaussianBlur stdDeviation="3"/><feColorMatrix type="matrix" values="0 0 0 0 0.1 0 0 0 0 0.15 0 0 0 0 0.14 0 0 0 0.05 0"/><feBlend in2="effect1_dropShadow" mode="normal" result="effect1_dropShadow"/><feMorphology in="SourceAlpha" operator="erode" radius="4" result="effect2_dropShadow"/><feOffset dy="12"/><feGaussianBlur stdDeviation="8"/><feColorMatrix type="matrix" values="0 0 0 0 0.1 0 0 0 0 0.15 0 0 0 0 0.14 0 0 0 0.07 0"/><feBlend in2="effect2_dropShadow" mode="normal" result="effect2_dropShadow"/><feBlend in="SourceGraphic" in2="effect2_dropShadow" mode="normal" result="shape"/></filter></defs></svg>